<svg version="1.1"
    xmlns="http://www.w3.org/2000/svg"
    xmlns:xlink="http://www.w3.org/1999/xlink"
    x="0px"
    y="0px"
    viewBox="0 0 112 112"
    enable-background="new 0 0 112 112"
    xml:space="preserve">

    <g>
        <g>
            <circle r="56" cy="56" cx="56" fill="rgb(255, 204, 0)"/>
        </g>
        <g>
            <path stroke="null" d="m56,25.807091c3.932098,0 7.021614,3.229935 7.021614,7.302471l0,21.90741c0,4.072536 -3.089516,7.302471 -7.021614,7.302471s-7.021606,-3.229935 -7.021606,-7.302471l0,-21.90741c0,-4.072536 3.089508,-7.302471 7.021606,-7.302471m0,-5.617287c-7.021606,0 -12.638893,5.757715 -12.638893,12.919758l0,21.90741c0,7.162033 5.617287,12.919765 12.638893,12.919765s12.638893,-5.757732 12.638893,-12.919765l0,-21.90741c0,-7.162043 -5.617279,-12.919758 -12.638893,-12.919758l0,0z"/>
            <path stroke="null" d="m79.873466,52.489197l0,1.544746c0,13.902794 -10.672844,25.137352 -23.873466,25.137352s-23.873463,-11.234558 -23.873463,-25.137352l0,-1.544746l5.61729,0l0,0.14043c0,11.51543 8.145058,20.924389 18.256172,20.924389s18.256187,-9.408958 18.256187,-20.924389l0,-0.14043l5.617279,0z"/>
            <rect stroke="null" height="14.043214" width="5.617285" y="77.76698" x="53.191358"/>
        </g>
    </g>
</svg>
